<?xml version="1.0" encoding="UTF-8"?><svg id="a" xmlns="http://www.w3.org/2000/svg" viewBox="0 0 48 48"><rect width="48" height="48" fill="blue"/><path d="m11.7082,7.1406h13.5005c7.4424,0,11.1963,3.5894,11.1963,8.6436,0,3.9683-2.585,6.4541-6.0918,7.2441v.3291c3.8359.1816,7.4092,3.1943,7.4092,8.1836,0,5.3672-4.0342,9.3184-11.6074,9.3184h-14.4067V7.1406Zm12.4141,14.1099c2.9146,0,5.0874-1.6133,5.0874-4.2808,0-2.4365-1.7939-4.0664-4.9556-4.0664h-5.417v8.3472h5.2852Zm.5269,13.7808c3.9844,0,5.7139-1.6631,5.7139-4.1982,0-2.7832-2.124-4.7588-5.5488-4.7588h-5.9771v8.957h5.812Z" fill="#fff"/></svg>